<?xml version="1.0" encoding="UTF-8" standalone="no"?>
<!DOCTYPE svg PUBLIC "-//W3C//DTD SVG 1.1//EN" "http://www.w3.org/Graphics/SVG/1.1/DTD/svg11.dtd">
<svg width="100%" height="100%" viewBox="0 0 3265 1361" version="1.1" xmlns="http://www.w3.org/2000/svg" xmlns:xlink="http://www.w3.org/1999/xlink" xml:space="preserve" xmlns:serif="http://www.serif.com/" style="fill-rule:evenodd;clip-rule:evenodd;stroke-linejoin:round;stroke-miterlimit:2;">
    <g id="Layer-1" serif:id="Layer 1" transform="matrix(5.07589,0,0,5.07589,-354.966,-148.481)">
        <g transform="matrix(1,0,0,1,186.633,173.008)">
            <path d="M0,-118.626L14.857,0L-2.1,0L-11.95,-86.992L-44.41,-14.827L-51.515,-14.827L-83.652,-86.828L-93.502,0L-110.297,0L-96.085,-118.626L-83.005,-118.626L-47.961,-44.058L-13.08,-118.626L0,-118.626Z" style="fill:rgb(201,193,184);fill-rule:nonzero;"/>
        </g>
        <g transform="matrix(1,0,0,1,0,-99.645)">
            <rect x="258.21" y="153.863" width="16.796" height="118.48" style="fill:rgb(201,193,184);"/>
        </g>
        <g transform="matrix(1,0,0,1,425.999,54.2176)">
            <path d="M0,119.944L-9.85,119.944L-71.216,37.431L-71.216,118.791L-88.01,118.791L-88.01,0L-77.999,0L-16.793,84.404L-16.793,1.318L0,1.318L0,119.944Z" style="fill:rgb(201,193,184);fill-rule:nonzero;"/>
        </g>
        <g transform="matrix(1,0,0,1,637.629,98.2081)">
            <path d="M0,30.81L35.366,30.81L17.764,-16.712L0,30.81ZM40.373,45.144L-5.005,45.144L-15.504,74.8L-33.268,74.8L12.273,-43.99L22.932,-43.99L68.634,74.8L50.709,74.8L40.373,45.144Z" style="fill:rgb(201,193,184);fill-rule:nonzero;"/>
        </g>
        <g transform="matrix(1,0,0,1,557.127,102.012)">
            <path d="M0,-0.131C0,4.678 -0.869,9.242 -2.583,13.433C-4.297,17.626 -6.682,21.316 -9.667,24.404C-12.651,27.49 -16.204,29.96 -20.226,31.747C-28.166,35.276 -37.999,35.338 -46.07,31.747C-50.092,29.962 -53.621,27.494 -56.56,24.412C-59.509,21.323 -61.873,17.629 -63.587,13.433C-65.303,9.247 -66.172,4.683 -66.172,-0.131C-66.172,-4.943 -65.303,-9.507 -63.587,-13.695C-61.873,-17.884 -59.491,-21.576 -56.504,-24.665C-53.522,-27.747 -49.975,-30.193 -45.956,-31.939C-41.946,-33.681 -37.615,-34.563 -33.085,-34.563C-28.477,-34.563 -24.128,-33.681 -20.157,-31.941C-16.18,-30.196 -12.651,-27.747 -9.667,-24.665C-6.682,-21.576 -4.299,-17.884 -2.583,-13.697C-0.869,-9.503 0,-4.938 0,-0.131M12.46,-19.354C9.911,-25.302 6.361,-30.578 1.906,-35.036C-2.554,-39.494 -7.834,-43.049 -13.791,-45.604C-19.765,-48.166 -26.256,-49.464 -33.085,-49.464C-39.916,-49.464 -46.408,-48.166 -52.381,-45.604C-58.343,-43.046 -63.623,-39.491 -68.077,-35.036C-72.53,-30.584 -76.1,-25.311 -78.69,-19.363C-81.29,-13.398 -82.607,-6.926 -82.607,-0.131C-82.607,6.667 -81.29,13.138 -78.69,19.101C-76.098,25.054 -72.526,30.327 -68.077,34.776C-63.623,39.231 -58.347,42.807 -52.39,45.405C-46.408,48.01 -39.913,49.333 -33.085,49.333C-26.259,49.333 -19.765,48.01 -13.783,45.405C-7.832,42.81 -2.554,39.234 1.906,34.776C6.359,30.322 9.909,25.045 12.46,19.092C15.015,13.126 16.31,6.659 16.31,-0.131C16.31,-6.92 15.015,-13.387 12.46,-19.354" style="fill:rgb(201,193,184);fill-rule:nonzero;"/>
        </g>
        <g transform="matrix(1,0,0,1,0,7.946)">
            <rect x="489.962" y="151.883" width="68.032" height="14.849" style="fill:rgb(201,193,184);"/>
        </g>
        <g transform="matrix(1,0,0,1,90.85,205.77)">
            <path d="M0,20.088C1.359,20.088 2.54,19.877 3.546,19.455C4.549,19.036 5.479,18.483 6.334,17.794L6.334,13.098L0.529,13.098L0.529,9.318L10.595,9.318L10.67,19.476C10.068,20.088 9.414,20.68 8.709,21.251C8.007,21.825 7.222,22.333 6.354,22.777C5.487,23.225 4.531,23.58 3.488,23.847C2.445,24.115 1.284,24.248 0,24.248C-2.011,24.248 -3.895,23.88 -5.655,23.141C-7.413,22.403 -8.952,21.391 -10.271,20.106C-11.593,18.82 -12.628,17.312 -13.383,15.579C-14.136,13.85 -14.514,11.99 -14.514,10.005C-14.514,8.021 -14.136,6.169 -13.383,4.45C-12.628,2.731 -11.593,1.237 -10.271,-0.038C-8.952,-1.31 -7.413,-2.313 -5.655,-3.053C-3.895,-3.792 -2.011,-4.16 0,-4.16C1.76,-4.16 3.363,-3.893 4.807,-3.357C6.254,-2.824 7.465,-2.11 8.446,-1.222L5.504,1.606C4.802,1.123 4.002,0.734 3.112,0.44C2.219,0.148 1.181,0.003 0,0.003C-1.357,0.003 -2.625,0.257 -3.807,0.765C-4.988,1.276 -6.019,1.982 -6.898,2.886C-7.779,3.787 -8.476,4.852 -8.99,6.073C-9.506,7.295 -9.762,8.618 -9.762,10.045C-9.762,11.47 -9.506,12.793 -8.99,14.015C-8.476,15.236 -7.779,16.301 -6.898,17.202C-6.019,18.107 -4.988,18.813 -3.807,19.323C-2.625,19.831 -1.357,20.088 0,20.088" style="fill:rgb(193,205,210);fill-rule:nonzero;"/>
        </g>
        <g transform="matrix(1,0,0,1,118.9,216.767)">
            <path d="M0,-1.869C0.652,-1.869 1.249,-1.983 1.791,-2.214C2.33,-2.442 2.789,-2.753 3.167,-3.149C3.543,-3.543 3.832,-4.002 4.032,-4.523C4.235,-5.044 4.335,-5.612 4.335,-6.222C4.335,-7.418 3.952,-8.411 3.185,-9.201C2.417,-9.988 1.356,-10.385 0,-10.385L-2.149,-10.385L-2.149,-1.869L0,-1.869ZM-2.149,2.291L-2.149,12.679L-6.938,12.679L-6.938,-14.548L0.226,-14.548C1.457,-14.548 2.608,-14.337 3.676,-13.918C4.745,-13.496 5.667,-12.912 6.447,-12.16C7.225,-11.408 7.834,-10.524 8.275,-9.506C8.714,-8.487 8.935,-7.38 8.935,-6.183C8.935,-5.242 8.789,-4.338 8.501,-3.473C8.212,-2.608 7.796,-1.813 7.257,-1.087C6.715,-0.36 6.063,0.262 5.296,0.785C4.529,1.306 3.668,1.694 2.713,1.948L10.254,12.679L4.937,12.679L-2.149,2.291Z" style="fill:rgb(193,205,210);fill-rule:nonzero;"/>
        </g>
        <g transform="matrix(1,0,0,1,138.427,229.446)">
            <path d="M0,-27.227L14.592,-27.227L14.592,-23.064L4.79,-23.064L4.79,-16L13.273,-16L13.273,-12.029L4.79,-12.029L4.79,-4.163L14.667,-4.163L14.667,0L0,0L0,-27.227Z" style="fill:rgb(193,205,210);fill-rule:nonzero;"/>
        </g>
        <g transform="matrix(1,0,0,1,163.195,229.446)">
            <path d="M0,-27.227L14.592,-27.227L14.592,-23.064L4.79,-23.064L4.79,-16L13.273,-16L13.273,-12.029L4.79,-12.029L4.79,-4.163L14.667,-4.163L14.667,0L0,0L0,-27.227Z" style="fill:rgb(193,205,210);fill-rule:nonzero;"/>
        </g>
        <g transform="matrix(1,0,0,1,192.752,202.219)">
            <path d="M0,27.227L-4.79,27.227L-4.79,0L0,0L0,11.686L0.038,11.686L0.452,11.037L8.973,0L14.477,0L4.937,12.679L15.646,27.227L10.254,27.227L0,12.908L0,27.227Z" style="fill:rgb(193,205,210);fill-rule:nonzero;"/>
        </g>
        <g transform="matrix(1,0,0,1,236.636,225.282)">
            <path d="M0,-18.9L-6.673,-18.9L-6.673,-23.063L11.498,-23.063L11.498,-18.9L4.787,-18.9L4.787,4.163L0,4.163L0,-18.9Z" style="fill:rgb(193,205,210);fill-rule:nonzero;"/>
        </g>
        <g transform="matrix(1,0,0,1,264.044,216.767)">
            <path d="M0,-1.869C0.652,-1.869 1.249,-1.983 1.791,-2.214C2.33,-2.442 2.789,-2.753 3.167,-3.149C3.543,-3.543 3.832,-4.002 4.032,-4.523C4.235,-5.044 4.336,-5.612 4.336,-6.222C4.336,-7.418 3.952,-8.411 3.185,-9.201C2.417,-9.988 1.357,-10.385 0,-10.385L-2.149,-10.385L-2.149,-1.869L0,-1.869ZM-2.149,2.291L-2.149,12.679L-6.938,12.679L-6.938,-14.548L0.226,-14.548C1.457,-14.548 2.608,-14.337 3.676,-13.918C4.745,-13.496 5.667,-12.912 6.447,-12.16C7.225,-11.408 7.834,-10.524 8.275,-9.506C8.714,-8.487 8.935,-7.38 8.935,-6.183C8.935,-5.242 8.79,-4.338 8.501,-3.473C8.212,-2.608 7.796,-1.813 7.257,-1.087C6.715,-0.36 6.063,0.262 5.296,0.785C4.529,1.306 3.669,1.694 2.713,1.948L10.254,12.679L4.937,12.679L-2.149,2.291Z" style="fill:rgb(193,205,210);fill-rule:nonzero;"/>
        </g>
        <g transform="matrix(1,0,0,1,289.755,212.147)">
            <path d="M0,7.143L7.315,7.143L3.997,-2.556L3.656,-3.892L3.317,-2.556L0,7.143ZM8.709,11.189L-1.395,11.189L-3.468,17.299L-8.559,17.299L2.074,-10.156L5.241,-10.156L15.911,17.299L10.783,17.299L8.709,11.189Z" style="fill:rgb(193,205,210);fill-rule:nonzero;"/>
        </g>
        <g transform="matrix(1,0,0,1,322.705,206.382)">
            <path d="M0,18.902C1.356,18.902 2.55,18.615 3.581,18.044C4.611,17.472 5.472,16.743 6.164,15.854C6.856,14.965 7.377,13.962 7.729,12.844C8.08,11.724 8.258,10.607 8.258,9.489C8.258,8.372 8.1,7.249 7.786,6.117C7.47,4.986 6.974,3.97 6.297,3.069C5.617,2.167 4.757,1.43 3.714,0.859C2.67,0.288 1.432,0.001 0,0.001L-3.506,0.001L-3.506,18.902L0,18.902ZM-8.295,-4.162L-0.564,-4.162C1.52,-4.162 3.398,-3.817 5.07,-3.131C6.743,-2.443 8.167,-1.488 9.351,-0.266C10.532,0.956 11.442,2.393 12.084,4.049C12.724,5.703 13.045,7.498 13.045,9.433C13.045,11.137 12.756,12.806 12.177,14.434C11.598,16.065 10.745,17.52 9.614,18.805C8.483,20.093 7.069,21.124 5.372,21.899C3.676,22.676 1.72,23.064 -0.489,23.064L-8.295,23.064L-8.295,-4.162Z" style="fill:rgb(193,205,210);fill-rule:nonzero;"/>
        </g>
        <g transform="matrix(1,0,0,1,0,105.104)">
            <rect x="345.513" y="97.115" width="4.79" height="27.227" style="fill:rgb(193,205,210);"/>
        </g>
        <g transform="matrix(1,0,0,1,365.91,225.282)">
            <path d="M0,-18.9L-6.673,-18.9L-6.673,-23.063L11.498,-23.063L11.498,-18.9L4.787,-18.9L4.787,4.163L0,4.163L0,-18.9Z" style="fill:rgb(193,205,210);fill-rule:nonzero;"/>
        </g>
        <g transform="matrix(1,0,0,1,0,105.104)">
            <rect x="386.379" y="97.115" width="4.79" height="27.227" style="fill:rgb(193,205,210);"/>
        </g>
        <g transform="matrix(1,0,0,1,405.645,215.833)">
            <path d="M0,-0.039C0,1.384 0.251,2.707 0.755,3.926C1.26,5.146 1.944,6.207 2.814,7.108C3.682,8.01 4.707,8.721 5.891,9.242C7.074,9.763 8.336,10.024 9.67,10.024C11.029,10.024 12.295,9.763 13.467,9.242C14.638,8.721 15.655,8.01 16.525,7.108C17.394,6.207 18.073,5.146 18.564,3.926C19.056,2.707 19.302,1.384 19.302,-0.039C19.302,-1.435 19.056,-2.751 18.564,-3.983C18.073,-5.215 17.394,-6.276 16.525,-7.165C15.655,-8.055 14.643,-8.761 13.484,-9.281C12.325,-9.802 11.066,-10.06 9.707,-10.06C8.373,-10.06 7.114,-9.802 5.931,-9.281C4.745,-8.761 3.714,-8.055 2.832,-7.165C1.951,-6.276 1.26,-5.215 0.755,-3.983C0.251,-2.751 0,-1.435 0,-0.039M-4.714,-0.059C-4.714,-2.018 -4.335,-3.856 -3.583,-5.575C-2.828,-7.292 -1.798,-8.796 -0.491,-10.081C0.815,-11.366 2.343,-12.377 4.091,-13.116C5.836,-13.855 7.714,-14.224 9.725,-14.224C11.711,-14.224 13.577,-13.855 15.324,-13.116C17.07,-12.377 18.592,-11.366 19.886,-10.081C21.18,-8.796 22.205,-7.292 22.958,-5.575C23.713,-3.856 24.089,-2.018 24.089,-0.059C24.089,1.901 23.713,3.748 22.958,5.478C22.205,7.21 21.18,8.719 19.886,10.004C18.592,11.289 17.07,12.308 15.324,13.06C13.577,13.809 11.711,14.185 9.725,14.185C7.714,14.185 5.836,13.809 4.091,13.06C2.343,12.308 0.815,11.289 -0.491,10.004C-1.798,8.719 -2.828,7.21 -3.583,5.478C-4.335,3.748 -4.714,1.901 -4.714,-0.059" style="fill:rgb(193,205,210);fill-rule:nonzero;"/>
        </g>
        <g transform="matrix(1,0,0,1,460.65,201.952)">
            <path d="M0,27.723L-2.941,27.723L-15.607,10.502L-16.361,9.317L-16.361,27.494L-21.151,27.494L-21.151,0L-18.172,0L-5.654,17.185L-4.789,18.635L-4.789,0.267L0,0.267L0,27.723Z" style="fill:rgb(193,205,210);fill-rule:nonzero;"/>
        </g>
        <g transform="matrix(1,0,0,1,477.991,212.147)">
            <path d="M0,7.143L7.314,7.143L3.997,-2.556L3.656,-3.892L3.317,-2.556L0,7.143ZM8.709,11.189L-1.395,11.189L-3.468,17.299L-8.559,17.299L2.074,-10.156L5.241,-10.156L15.911,17.299L10.783,17.299L8.709,11.189Z" style="fill:rgb(193,205,210);fill-rule:nonzero;"/>
        </g>
        <g transform="matrix(1,0,0,1,502.646,229.446)">
            <path d="M0,-27.227L4.789,-27.227L4.789,-4.163L14.517,-4.163L14.517,0L0,0L0,-27.227Z" style="fill:rgb(193,205,210);fill-rule:nonzero;"/>
        </g>
        <g transform="matrix(1,0,0,1,562.475,203.863)">
            <path d="M0,23.902C-1.081,24.667 -2.287,25.233 -3.618,25.601C-4.95,25.969 -6.257,26.155 -7.54,26.155C-9.552,26.155 -11.435,25.787 -13.195,25.048C-14.953,24.31 -16.492,23.298 -17.812,22.012C-19.133,20.727 -20.169,19.218 -20.924,17.486C-21.676,15.756 -22.055,13.897 -22.055,11.912C-22.055,9.927 -21.676,8.076 -20.924,6.357C-20.169,4.637 -19.138,3.144 -17.832,1.869C-16.525,0.596 -14.998,-0.407 -13.25,-1.146C-11.505,-1.885 -9.649,-2.253 -7.69,-2.253C-6.309,-2.253 -4.937,-2.068 -3.581,-1.7C-2.224,-1.331 -1.006,-0.752 0.075,0.038L-1.998,3.436C-2.954,2.849 -3.906,2.451 -4.862,2.232C-5.817,2.016 -6.71,1.91 -7.54,1.91C-8.896,1.91 -10.166,2.164 -11.347,2.672C-12.528,3.182 -13.559,3.888 -14.438,4.793C-15.319,5.694 -16.016,6.758 -16.53,7.98C-17.047,9.202 -17.303,10.525 -17.303,11.952C-17.303,13.377 -17.047,14.7 -16.53,15.922C-16.016,17.143 -15.319,18.208 -14.438,19.109C-13.559,20.013 -12.528,20.727 -11.347,21.248C-10.166,21.771 -8.896,22.033 -7.54,22.033C-6.785,22.033 -5.905,21.916 -4.899,21.687C-3.895,21.459 -2.954,21.052 -2.073,20.465L0,23.902Z" style="fill:rgb(193,205,210);fill-rule:nonzero;"/>
        </g>
        <g transform="matrix(1,0,0,1,576.689,212.518)">
            <path d="M0,7.201C0,9.057 0.491,10.543 1.477,11.66C2.46,12.778 3.858,13.34 5.674,13.34C7.515,13.34 8.939,12.786 9.947,11.68C10.955,10.573 11.462,9.029 11.462,7.048L11.462,-10.299L16.174,-10.299L16.174,7.228C16.174,8.885 15.91,10.347 15.384,11.62C14.857,12.892 14.13,13.97 13.2,14.846C12.271,15.724 11.169,16.388 9.89,16.832C8.61,17.276 7.204,17.5 5.674,17.5C4.119,17.5 2.708,17.253 1.441,16.756C0.173,16.26 -0.918,15.559 -1.834,14.655C-2.749,13.754 -3.458,12.669 -3.96,11.409C-4.462,10.149 -4.712,8.755 -4.712,7.228L-4.712,-10.299L0,-10.299L0,7.201Z" style="fill:rgb(193,205,210);fill-rule:nonzero;"/>
        </g>
        <g transform="matrix(1,0,0,1,0,105.104)">
            <rect x="603.605" y="97.115" width="4.79" height="27.227" style="fill:rgb(193,205,210);"/>
        </g>
        <g transform="matrix(1,0,0,1,619.1,207.375)">
            <path d="M0,16.877L0.454,17.144C1.181,17.502 1.923,17.819 2.678,18.099C3.431,18.381 4.373,18.521 5.504,18.521C6.886,18.521 7.992,18.188 8.822,17.527C9.651,16.864 10.065,15.922 10.065,14.7C10.065,13.631 9.72,12.709 9.03,11.932C8.338,11.157 7.187,10.423 5.579,9.737C4.474,9.252 3.488,8.744 2.62,8.208C1.753,7.675 1.019,7.083 0.414,6.434C-0.188,5.785 -0.647,5.066 -0.96,4.276C-1.276,3.487 -1.432,2.608 -1.432,1.641C-1.432,0.571 -1.231,-0.419 -0.83,-1.336C-0.427,-2.253 0.138,-3.035 0.867,-3.685C1.595,-4.333 2.487,-4.844 3.543,-5.212C4.599,-5.58 5.793,-5.766 7.127,-5.766C8.483,-5.766 9.77,-5.588 10.991,-5.232C12.21,-4.874 13.183,-4.468 13.912,-4.011L11.801,-0.495C11.601,-0.65 11.335,-0.79 11.009,-0.917C10.683,-1.044 10.331,-1.158 9.953,-1.26C9.576,-1.361 9.181,-1.445 8.767,-1.509C8.351,-1.572 7.967,-1.602 7.615,-1.602C6.359,-1.602 5.304,-1.349 4.448,-0.841C3.594,-0.33 3.167,0.473 3.167,1.564C3.167,2.151 3.293,2.654 3.543,3.073C3.794,3.494 4.14,3.883 4.581,4.238C5.021,4.595 5.542,4.939 6.146,5.27C6.748,5.6 7.402,5.943 8.104,6.301C10.392,7.497 12.089,8.724 13.195,9.983C14.301,11.246 14.855,12.818 14.855,14.7C14.855,15.973 14.635,17.101 14.195,18.081C13.754,19.062 13.145,19.887 12.365,20.563C11.588,21.237 10.67,21.753 9.614,22.108C8.559,22.465 7.415,22.643 6.184,22.643C4.398,22.643 2.828,22.439 1.47,22.032C0.113,21.626 -0.968,21.192 -1.771,20.734L0,16.877Z" style="fill:rgb(193,205,210);fill-rule:nonzero;"/>
        </g>
        <g transform="matrix(1,0,0,1,0,105.104)">
            <rect x="643.379" y="97.115" width="4.789" height="27.227" style="fill:rgb(193,205,210);"/>
        </g>
        <g transform="matrix(1,0,0,1,680.439,201.952)">
            <path d="M0,27.723L-2.941,27.723L-15.607,10.502L-16.362,9.317L-16.362,27.494L-21.151,27.494L-21.151,0L-18.173,0L-5.654,17.185L-4.789,18.635L-4.789,0.267L0,0.267L0,27.723Z" style="fill:rgb(193,205,210);fill-rule:nonzero;"/>
        </g>
        <g transform="matrix(1,0,0,1,691.595,229.446)">
            <path d="M0,-27.227L14.593,-27.227L14.593,-23.064L4.79,-23.064L4.79,-16L13.273,-16L13.273,-12.029L4.79,-12.029L4.79,-4.163L14.668,-4.163L14.668,0L0,0L0,-27.227Z" style="fill:rgb(193,205,210);fill-rule:nonzero;"/>
        </g>
    </g>
</svg>
